<?xml version="1.0" standalone="no"?>
<!DOCTYPE svg PUBLIC "-//W3C//DTD SVG 20010904//EN"
 "http://www.w3.org/TR/2001/REC-SVG-20010904/DTD/svg10.dtd">
<svg version="1.0" xmlns="http://www.w3.org/2000/svg"
 width="500.000000pt" height="500.000000pt" viewBox="0 0 500.000000 500.000000"
 preserveAspectRatio="xMidYMid meet">
<metadata>
Created by potrace 1.16, written by Peter Selinger 2001-2019
</metadata>
<g transform="translate(0.000000,500.000000) scale(0.100000,-0.100000)"
fill="#000000" stroke="none">
<path d="M1855 3630 c-366 -183 -652 -332 -644 -335 8 -3 59 -20 114 -38 l100
-32 3 -255 2 -255 -30 -13 c-61 -27 -77 -104 -35 -166 24 -36 25 -43 25 -196
l0 -160 60 0 60 0 0 170 c0 104 4 170 10 170 14 0 40 55 40 85 0 39 -26 82
-60 97 l-30 13 0 247 c0 137 2 248 4 248 1 0 16 -4 32 -9 16 -6 75 -24 132
-41 l102 -31 0 -159 c0 -88 4 -160 8 -160 4 0 24 16 43 36 122 128 314 231
512 276 120 27 335 29 451 4 185 -41 346 -121 496 -249 l80 -68 0 160 0 160
68 20 c220 66 472 147 472 151 0 10 -1316 660 -1336 660 -11 0 -316 -148 -679
-330z"/>
<path d="M2756 2863 c112 -177 248 -316 419 -425 75 -49 168 -98 184 -98 15 0
-46 137 -91 205 -81 121 -209 235 -338 300 -52 26 -183 75 -202 75 -5 0 8 -26
28 -57z"/>
<path d="M1907 2672 c-67 -71 -145 -189 -177 -267 l-23 -58 24 -45 c85 -161
250 -372 421 -537 196 -191 371 -314 612 -431 l130 -63 68 36 c37 19 98 61
135 92 63 52 153 153 153 169 0 4 -40 20 -88 36 -105 34 -277 116 -390 185
-314 192 -575 478 -743 817 -34 68 -63 124 -64 124 -1 0 -27 -26 -58 -58z"/>
<path d="M1670 2018 c0 -91 77 -358 103 -358 6 0 7 -3 4 -7 -4 -3 2 -13 14
-21 11 -8 18 -20 15 -28 -3 -7 0 -16 6 -20 7 -5 8 -2 3 7 -8 12 -6 12 8 0 18
-14 24 -36 7 -26 -16 10 -11 -1 7 -16 15 -12 16 -12 8 1 -8 13 -7 13 8 1 20
-16 23 -36 5 -25 -7 4 21 -28 62 -70 41 -42 78 -76 83 -76 4 0 5 5 2 10 -10
16 1 11 16 -7 10 -11 10 -14 2 -9 -25 15 -12 -2 15 -20 23 -15 25 -15 13 -1
-7 9 18 -2 57 -24 70 -40 218 -98 257 -100 l20 0 -20 -10 c-17 -8 -16 -9 8 -5
15 2 30 -1 33 -5 3 -5 51 -9 107 -9 l102 0 -78 45 c-44 25 -122 74 -174 111
-52 36 -92 61 -89 56 3 -5 47 -38 98 -72 88 -59 133 -94 98 -75 -57 31 -172
115 -205 149 -21 23 -33 32 -25 21 16 -22 -42 32 -244 225 l-131 125 110 -115
110 -115 -112 109 c-62 60 -110 113 -107 118 6 9 -83 119 -126 155 -29 24 -42
51 -17 37 8 -5 8 -2 -2 9 -17 22 -20 21 -31 -5 -8 -21 -9 -20 -9 10 -1 24 2
31 12 26 7 -5 7 -1 -3 12 -8 10 -16 21 -17 23 -2 2 -3 -12 -3 -31z"/>
</g>
</svg>
